<svg xmlns="http://www.w3.org/2000/svg" width="10.943" height="10.944" viewBox="0 0 10.943 10.944">
    <g id="prefix__Shape_7" data-name="Shape 7" style="fill:none">
        <path d="M50.539 919.742a.413.413 0 01-.127.362l-1.2 1.195a.678.678 0 01-.213.154.876.876 0 01-.258.081h-.172a4.155 4.155 0 01-.556-.059 4.227 4.227 0 01-.941-.29 7.886 7.886 0 01-1.262-.693 9.4 9.4 0 01-1.5-1.267 9.914 9.914 0 01-1.049-1.195 8.507 8.507 0 01-.669-1.054 5.684 5.684 0 01-.38-.878 4.673 4.673 0 01-.172-.679 2.245 2.245 0 01-.036-.448l.009-.181a.881.881 0 01.081-.258.678.678 0 01.154-.213l1.2-1.2a.4.4 0 01.289-.127.337.337 0 01.208.068.628.628 0 01.154.167l.968 1.837a.44.44 0 01.045.317.564.564 0 01-.154.289l-.443.444a.149.149 0 00-.032.059.225.225 0 00-.014.068 1.635 1.635 0 00.163.434 3.98 3.98 0 00.335.529 5.876 5.876 0 00.642.72 5.991 5.991 0 00.724.647 4.175 4.175 0 00.529.339 1.406 1.406 0 00.326.131l.113.023a.215.215 0 00.059-.014.15.15 0 00.059-.032l.516-.525a.554.554 0 01.38-.145.472.472 0 01.244.054h.009l1.746 1.032a.456.456 0 01.225.308z" style="stroke:none" transform="translate(-40.8 -911.799)"/>
        <path d="M48.568 921.543c.048 0 .087-.001.117-.004l.054-.005c.085-.012.17-.04.258-.081.088-.043.158-.094.213-.154l1.203-1.195c.102-.102.144-.223.126-.362-.024-.12-.1-.22-.226-.299l-1.745-1.031h-.01c-.06-.037-.141-.055-.244-.055-.144 0-.271.049-.38.145l-.515.525c-.012.012-.032.023-.059.032-.027.009-.047.013-.059.013l-.113-.022c-.075-.015-.184-.059-.325-.131-.142-.073-.318-.186-.53-.34-.21-.154-.452-.37-.723-.647-.277-.271-.491-.511-.642-.72-.15-.207-.262-.384-.335-.529-.084-.163-.138-.308-.163-.434 0-.018.005-.041.014-.068.009-.027.02-.047.032-.059l.443-.444c.078-.078.13-.174.154-.289.024-.115.009-.22-.046-.317l-.967-1.837c-.043-.066-.094-.122-.154-.167-.06-.046-.13-.068-.208-.068-.109 0-.205.042-.29.126l-1.203 1.204c-.06.054-.111.125-.153.213-.043.087-.07.173-.082.258l-.009.18c-.006.11.006.259.036.449s.088.416.172.679c.085.262.211.554.38.877.169.323.392.675.67 1.055.277.38.627.778 1.049 1.194.53.537 1.03.96 1.501 1.267.47.308.89.539 1.262.693.37.154.684.25.94.29.257.039.442.058.557.058m0 1.2c-.18 0-.415-.023-.739-.072-.354-.055-.752-.175-1.218-.368-.443-.184-.92-.444-1.46-.797-.536-.35-1.105-.83-1.692-1.422-.463-.458-.857-.907-1.17-1.336-.31-.426-.568-.832-.763-1.206-.203-.386-.353-.735-.459-1.066-.105-.325-.175-.606-.215-.858-.044-.282-.06-.506-.049-.704l.007-.134v-.064l.012-.085c.03-.206.093-.411.189-.61.104-.216.24-.402.402-.556l1.187-1.187c.308-.309.712-.479 1.138-.479.339 0 .66.107.929.309.175.131.325.294.445.483l.026.041.023.044.963 1.827c.19.347.246.738.163 1.133-.063.3-.2.576-.397.803l.05.07c.076.104.225.288.51.566l.009.009.009.01c.279.284.465.437.572.515l.052.038.015-.014.03-.027c.33-.294.737-.449 1.177-.449.158 0 .309.019.45.055h.132l.282.167 1.746 1.031.01.007.012.007c.407.253.68.637.77 1.082l.008.04.005.041c.066.505-.105 1.003-.468 1.366l-1.189 1.18c-.153.162-.339.297-.553.4-.199.096-.404.16-.611.19l-.084.011h-.032c-.068.006-.141.01-.224.01z" style="fill:#338ffa;stroke:none" transform="translate(-40.8 -911.799)"/>
    </g>
</svg>
